<?xml version="1.0" encoding="utf-8"?>
<!-- Generator: Adobe Illustrator 26.3.1, SVG Export Plug-In . SVG Version: 6.00 Build 0)  -->
<svg version="1.1" id="Layer_1" xmlns="http://www.w3.org/2000/svg" xmlns:xlink="http://www.w3.org/1999/xlink" x="0px" y="0px"
	 viewBox="0 0 800 800" style="enable-background:new 0 0 800 800;" xml:space="preserve">
<style type="text/css">
	.st0{fill:#FFFFFF;}
</style>
<path class="st0" d="M399.9,712.6c-61.2,0-120.4-18-171.3-51.9c-50.9-34-90.1-81.8-113.5-138.3c-23.4-56.5-29.5-118.1-17.6-178.1
	c11.9-60,41.1-114.6,84.3-157.8c14.9-14.9,39.2-15,54.1,0c14.9,14.9,15,39.2,0,54.1c-32.5,32.5-54.4,73.6-63.4,118.7
	c-9,45.1-4.4,91.4,13.2,133.9c17.6,42.5,47.1,78.4,85.3,104c38.2,25.5,82.7,39,128.7,39s90.5-13.5,128.7-39
	c38.2-25.5,67.7-61.5,85.3-104c17.6-42.5,22.2-88.8,13.2-133.9c-9-45.1-30.9-86.1-63.4-118.6c-14.9-14.9-14.9-39.2,0-54.1
	c14.9-14.9,39.2-14.9,54.1,0c43.2,43.3,72.4,97.8,84.3,157.8c11.9,60,5.9,121.6-17.6,178.1c-23.4,56.5-62.7,104.3-113.5,138.3
	C520.3,694.7,461,712.6,399.9,712.6z M400,442.5c-21.1,0-38.3-17.1-38.3-38.3v-270c0-21.1,17.1-38.3,38.3-38.3
	c21.1,0,38.3,17.1,38.3,38.3v270C438.3,425.4,421.1,442.5,400,442.5z"/>
</svg>
