<?xml version="1.0" encoding="utf-8"?>
<!-- Generator: Adobe Illustrator 26.3.1, SVG Export Plug-In . SVG Version: 6.00 Build 0)  -->
<svg version="1.1" id="Layer_1" xmlns="http://www.w3.org/2000/svg" xmlns:xlink="http://www.w3.org/1999/xlink" x="0px" y="0px"
	 viewBox="0 0 800 800" style="enable-background:new 0 0 800 800;" xml:space="preserve">
<style type="text/css">
	.st0{fill:#FFFFFF;}
</style>
<g>
	<path class="st0" d="M400,364.8c26.4,0,48.6-22.3,48.6-48.6V221c0-12.9-5.1-25.2-14.3-34.5C425,177.1,412.9,172,400,172
		c-12.9,0-25,5.1-34.3,14.5c-9.2,9.3-14.3,21.6-14.3,34.5v95.2C351.4,342.5,373.6,364.8,400,364.8z"/>
	<path class="st0" d="M266.7,388.1c0-12.9-5.2-25.4-14.3-34.3l-66.6-67.3c-8.9-9.1-21.4-14.4-34.3-14.5
		c-13.1-0.1-25.4,4.9-34.5,14.1c-18.7,18.7-18.8,49.4-0.2,68.6l67.2,67.5c8.9,9.1,21.4,14.4,34.3,14.4c0,0,0,0,0,0
		c12.9,0,25.3-5.2,34.2-14.2C261.5,413.4,266.7,400.9,266.7,388.1z"/>
	<path class="st0" d="M680,358.6c9.2-9.2,14.4-21.9,14.3-35.1c-0.1-13-5.2-25.1-14.3-34.1c-8.9-9.1-20.9-14.2-33.9-14.2
		c-13.2-0.1-25.6,5-34.9,14.2l-67.8,67.8c0,0,0,0,0,0c-9,9-14,21.2-14,34.2c0,13,5,25.2,14,34.2c9.1,9.1,21.7,14.3,34.7,14.3
		c0.1,0,0.2,0,0.4,0c13.1-0.1,25.2-5.2,34.1-14.3L680,358.6z"/>
	<path class="st0" d="M782.8,535c-9.3-9.3-21.4-14.5-34.3-14.5h-95.2c-27,0-49,22-49,49c0,12.9,5.1,25,14.5,34.3
		c9.3,9.2,21.6,14.3,34.5,14.3h95.2c26.4,0,48.6-22.3,48.6-48.6C797.2,556.6,792.1,544.3,782.8,535z"/>
	<path class="st0" d="M147,520.5H51.5c-12.9,0-25,5.1-34.3,14.5c-9.2,9.3-14.3,21.6-14.3,34.5c0,26.4,22.3,48.6,48.6,48.6H147
		c12.9,0,25.2-5.1,34.5-14.3c9.3-9.3,14.5-21.4,14.5-34.3C196,542.5,174,520.5,147,520.5z"/>
	<path class="st0" d="M514.7,522.6H285c-26.4,0-47.9,21.4-47.9,47.6c0,25.6,22,47.3,47.9,47.3h229.7c26,0,47.9-21.6,47.9-47.3
		C562.6,544,541.1,522.6,514.7,522.6z"/>
</g>
</svg>
